<svg id="visual" viewBox="0 0 960 540" width="960" height="540" xmlns="http://www.w3.org/2000/svg" xmlns:xlink="http://www.w3.org/1999/xlink" version="1.1"><rect x="0" y="0" width="960" height="540" fill="#1e1e1e"></rect><path d="M0 418L22.8 424.3C45.7 430.7 91.3 443.3 137 440.5C182.7 437.7 228.3 419.3 274 410.8C319.7 402.3 365.3 403.7 411.2 404.7C457 405.7 503 406.3 548.8 409.2C594.7 412 640.3 417 686 419C731.7 421 777.3 420 823 419.2C868.7 418.3 914.3 417.7 937.2 417.3L960 417L960 541L937.2 541C914.3 541 868.7 541 823 541C777.3 541 731.7 541 686 541C640.3 541 594.7 541 548.8 541C503 541 457 541 411.2 541C365.3 541 319.7 541 274 541C228.3 541 182.7 541 137 541C91.3 541 45.7 541 22.8 541L0 541Z" fill="#07a2a4"></path><path d="M0 481L22.8 478.7C45.7 476.3 91.3 471.7 137 470.7C182.7 469.7 228.3 472.3 274 474.8C319.7 477.3 365.3 479.7 411.2 481.3C457 483 503 484 548.8 483C594.7 482 640.3 479 686 475.2C731.7 471.3 777.3 466.7 823 466.7C868.7 466.7 914.3 471.3 937.2 473.7L960 476L960 541L937.2 541C914.3 541 868.7 541 823 541C777.3 541 731.7 541 686 541C640.3 541 594.7 541 548.8 541C503 541 457 541 411.2 541C365.3 541 319.7 541 274 541C228.3 541 182.7 541 137 541C91.3 541 45.7 541 22.8 541L0 541Z" fill="#eed622"></path></svg>