<svg xmlns="http://www.w3.org/2000/svg" xmlns:xlink="http://www.w3.org/1999/xlink" width="500" zoomAndPan="magnify" viewBox="0 0 375 374.999991" height="500" preserveAspectRatio="xMidYMid meet" version="1.0"><defs><g/><clipPath id="a9585515cc"><path d="M 17.25 0 L 357.75 0 C 362.324219 0 366.710938 1.816406 369.949219 5.050781 C 373.183594 8.289062 375 12.675781 375 17.25 L 375 357.75 C 375 362.324219 373.183594 366.710938 369.949219 369.949219 C 366.710938 373.183594 362.324219 375 357.75 375 L 17.25 375 C 12.675781 375 8.289062 373.183594 5.050781 369.949219 C 1.816406 366.710938 0 362.324219 0 357.75 L 0 17.25 C 0 12.675781 1.816406 8.289062 5.050781 5.050781 C 8.289062 1.816406 12.675781 0 17.25 0 Z M 17.25 0 " clip-rule="nonzero"/></clipPath></defs><g clip-path="url(#a9585515cc)"><rect x="-37.5" width="450" fill="#1e1e1e" y="-37.499999" height="449.999989" fill-opacity="1"/><path stroke-linecap="butt" transform="matrix(0.75, 0, 0, 0.75, 0.0000045, 0)" fill="none" stroke-linejoin="miter" d="M 22.999996 0 L 477.000025 0 C 483.098984 0 488.947943 2.421875 493.265651 6.734375 C 497.578152 11.052084 500.000027 16.901043 500.000027 23.000002 L 500.000027 477.000031 C 500.000027 483.09899 497.578152 488.947949 493.265651 493.265657 C 488.947943 497.578158 483.098984 500.000033 477.000025 500.000033 L 22.999996 500.000033 C 16.901037 500.000033 11.052078 497.578158 6.734369 493.265657 C 2.421869 488.947949 -0.000006 483.09899 -0.000006 477.000031 L -0.000006 23.000002 C -0.000006 16.901043 2.421869 11.052084 6.734369 6.734375 C 11.052078 2.421875 16.901037 0 22.999996 0 Z M 22.999996 0 " stroke="#eed622" stroke-width="40" stroke-opacity="1" stroke-miterlimit="4"/></g><g fill="#07a2a4" fill-opacity="1"><g transform="translate(163.651623, 289.215901)"><g><path d="M 147.59375 -87.296875 L 63.09375 -87.296875 L 63.09375 0 L 19.078125 0 L 19.078125 -213.625 L 158.171875 -213.625 L 158.171875 -177.96875 L 63.09375 -177.96875 L 63.09375 -122.8125 L 147.59375 -122.8125 Z M 147.59375 -87.296875 "/></g></g></g><g fill="#ffd700" fill-opacity="1"><g transform="translate(46.555, 289.215901)"><g><path d="M 179.875 -177.96875 L 114.4375 -177.96875 L 114.4375 0 L 70.421875 0 L 70.421875 -177.96875 L 5.875 -177.96875 L 5.875 -213.625 L 179.875 -213.625 Z M 179.875 -177.96875 "/></g></g></g></svg>