<svg xmlns="http://www.w3.org/2000/svg" xmlns:xlink="http://www.w3.org/1999/xlink" width="500" zoomAndPan="magnify" viewBox="0 0 375 374.999991" height="500" preserveAspectRatio="xMidYMid meet" version="1.0"><defs><g/><clipPath id="b5290093b2"><path d="M 7.386719 6.140625 L 367.382812 6.140625 L 367.382812 369 L 7.386719 369 Z M 7.386719 6.140625 " clip-rule="nonzero"/></clipPath><clipPath id="3b33ea8592"><path d="M 24.632812 6.140625 L 350.363281 6.140625 C 354.9375 6.140625 359.324219 7.960938 362.5625 11.195312 C 365.796875 14.429688 367.613281 18.816406 367.613281 23.390625 L 367.613281 351.601562 C 367.613281 356.175781 365.796875 360.5625 362.5625 363.796875 C 359.324219 367.03125 354.9375 368.847656 350.363281 368.847656 L 24.632812 368.847656 C 20.058594 368.847656 15.671875 367.03125 12.4375 363.796875 C 9.203125 360.5625 7.386719 356.175781 7.386719 351.601562 L 7.386719 23.390625 C 7.386719 18.816406 9.203125 14.429688 12.4375 11.195312 C 15.671875 7.960938 20.058594 6.140625 24.632812 6.140625 Z M 24.632812 6.140625 " clip-rule="nonzero"/></clipPath></defs><g clip-path="url(#b5290093b2)"><g clip-path="url(#3b33ea8592)"><path stroke-linecap="butt" transform="matrix(0.75, 0, 0, 0.75, 7.385122, 6.14222)" fill="none" stroke-linejoin="miter" d="M 22.996922 -0.0021273 L 457.304242 -0.0021273 C 463.403201 -0.0021273 469.252159 2.424956 473.569868 6.737456 C 477.882368 11.049957 480.304244 16.898915 480.304244 22.997874 L 480.304244 460.612486 C 480.304244 466.711445 477.882368 472.560404 473.569868 476.872904 C 469.252159 481.185404 463.403201 483.607279 457.304242 483.607279 L 22.996922 483.607279 C 16.897963 483.607279 11.049004 481.185404 6.736504 476.872904 C 2.424004 472.560404 0.00212866 466.711445 0.00212866 460.612486 L 0.00212866 22.997874 C 0.00212866 16.898915 2.424004 11.049957 6.736504 6.737456 C 11.049004 2.424956 16.897963 -0.0021273 22.996922 -0.0021273 Z M 22.996922 -0.0021273 " stroke="#eed622" stroke-width="8" stroke-opacity="1" stroke-miterlimit="4"/></g></g><g fill="#07a2a4" fill-opacity="1"><g transform="translate(159.43147, 307.215344)"><g><path d="M 173.734375 -102.75 L 74.25 -102.75 L 74.25 0 L 22.453125 0 L 22.453125 -251.4375 L 186.15625 -251.4375 L 186.15625 -209.46875 L 74.25 -209.46875 L 74.25 -144.546875 L 173.734375 -144.546875 Z M 173.734375 -102.75 "/></g></g></g><g fill="#eed622" fill-opacity="1"><g transform="translate(21.613699, 307.215344)"><g><path d="M 211.71875 -209.46875 L 134.703125 -209.46875 L 134.703125 0 L 82.890625 0 L 82.890625 -209.46875 L 6.90625 -209.46875 L 6.90625 -251.4375 L 211.71875 -251.4375 Z M 211.71875 -209.46875 "/></g></g></g></svg>